{
  "accessors": [
    {
      "bufferView": 1,
      "componentType": 5126,
      "count": 65532,
      "max": [
        69.595367431640625,
        -13.250001907348633,
        3.2786049842834473
      ],
      "min": [
        -58.403892517089844,
        -67.649635314941406,
        0.0010179292876273394
      ],
      "type": "VEC3"
    },
    {
      "bufferView": 1,
      "byteOffset": 786384,
      "componentType": 5126,
      "count": 65532,
      "max": [
        0.69904792308807373,
        0.76982259750366211,
        1
      ],
      "min": [
        -0.84607023000717163,
        -0.81184124946594238,
        0.52452230453491211
      ],
      "type": "VEC3"
    },
    {
      "bufferView": 0,
      "componentType": 5125,
      "count": 377673,
      "max": [
        65531
      ],
      "min": [
        0
      ],
      "type": "SCALAR"
    },
    {
      "bufferView": 1,
      "byteOffset": 1572768,
      "componentType": 5126,
      "count": 65532,
      "max": [
        69.595367431640625,
        5.2459907531738281,
        3.2786049842834473
      ],
      "min": [
        -58.403892517089844,
        -40.641983032226562,
        0.002599355299025774
      ],
      "type": "VEC3"
    },
    {
      "bufferView": 1,
      "byteOffset": 2359152,
      "componentType": 5126,
      "count": 65532,
      "max": [
        0.82064104080200195,
        0.86727553606033325,
        1
      ],
      "min": [
        -0.85468900203704834,
        -0.80915689468383789,
        0.41541460156440735
      ],
      "type": "VEC3"
    },
    {
      "bufferView": 0,
      "byteOffset": 1510692,
      "componentType": 5125,
      "count": 361557,
      "max": [
        65531
      ],
      "min": [
        0
      ],
      "type": "SCALAR"
    },
    {
      "bufferView": 1,
      "byteOffset": 3145536,
      "componentType": 5126,
      "count": 65532,
      "max": [
        69.595367431640625,
        45.565814971923828,
        3.6424148082733154
      ],
      "min": [
        -58.403892517089844,
        -54.145809173583984,
        0.0002908369351644069
      ],
      "type": "VEC3"
    },
    {
      "bufferView": 1,
      "byteOffset": 3931920,
      "componentType": 5126,
      "count": 65532,
      "max": [
        0.81237620115280151,
        0.86400556564331055,
        1
      ],
      "min": [
        -0.81525725126266479,
        -0.80622619390487671,
        0.48877140879631042
      ],
      "type": "VEC3"
    },
    {
      "bufferView": 0,
      "byteOffset": 2956920,
      "componentType": 5125,
      "count": 362727,
      "max": [
        65531
      ],
      "min": [
        0
      ],
      "type": "SCALAR"
    },
    {
      "bufferView": 1,
      "byteOffset": 4718304,
      "componentType": 5126,
      "count": 65532,
      "max": [
        69.595367431640625,
        36.605930328369141,
        5.5921401977539062
      ],
      "min": [
        -58.403892517089844,
        2.3659915924072266,
        0.0048351641744375229
      ],
      "type": "VEC3"
    },
    {
      "bufferView": 1,
      "byteOffset": 5504688,
      "componentType": 5126,
      "count": 65532,
      "max": [
        0.86129653453826904,
        0.81356823444366455,
        1
      ],
      "min": [
        -0.88784164190292358,
        -0.88777011632919312,
        0.42580825090408325
      ],
      "type": "VEC3"
    },
    {
      "bufferView": 0,
      "byteOffset": 4407828,
      "componentType": 5125,
      "count": 365706,
      "max": [
        65531
      ],
      "min": [
        0
      ],
      "type": "SCALAR"
    },
    {
      "bufferView": 1,
      "byteOffset": 6291072,
      "componentType": 5126,
      "count": 65532,
      "max": [
        69.595367431640625,
        60.349624633789062,
        6.2823691368103027
      ],
      "min": [
        -58.403892517089844,
        20.478019714355469,
        0.0002908369351644069
      ],
      "type": "VEC3"
    },
    {
      "bufferView": 1,
      "byteOffset": 7077456,
      "componentType": 5126,
      "count": 65532,
      "max": [
        0.90440213680267334,
        0.8912157416343689,
        1
      ],
      "min": [
        -0.87664347887039185,
        -0.89021813869476318,
        0.39055848121643066
      ],
      "type": "VEC3"
    },
    {
      "bufferView": 0,
      "byteOffset": 5870652,
      "componentType": 5125,
      "count": 359844,
      "max": [
        65531
      ],
      "min": [
        0
      ],
      "type": "SCALAR"
    },
    {
      "bufferView": 1,
      "byteOffset": 7863840,
      "componentType": 5126,
      "count": 65532,
      "max": [
        69.595367431640625,
        60.349624633789062,
        7.5042018890380859
      ],
      "min": [
        -58.403892517089844,
        34.621952056884766,
        0.0002908369351644069
      ],
      "type": "VEC3"
    },
    {
      "bufferView": 1,
      "byteOffset": 8650224,
      "componentType": 5126,
      "count": 65532,
      "max": [
        0.89483755826950073,
        0.90608686208724976,
        1
      ],
      "min": [
        -0.90088528394699097,
        -0.89839011430740356,
        0.37615010142326355
      ],
      "type": "VEC3"
    },
    {
      "bufferView": 0,
      "byteOffset": 7310028,
      "componentType": 5125,
      "count": 363525,
      "max": [
        65531
      ],
      "min": [
        0
      ],
      "type": "SCALAR"
    },
    {
      "bufferView": 1,
      "byteOffset": 9436608,
      "componentType": 5126,
      "count": 45642,
      "max": [
        69.595367431640625,
        60.349624633789062,
        9.2042627334594727
      ],
      "min": [
        -58.403892517089844,
        49.149768829345703,
        0.0082434099167585373
      ],
      "type": "VEC3"
    },
    {
      "bufferView": 1,
      "byteOffset": 9984312,
      "componentType": 5126,
      "count": 45642,
      "max": [
        0.95941537618637085,
        0.92088967561721802,
        1
      ],
      "min": [
        -0.9333953857421875,
        -0.92896133661270142,
        0.28109535574913025
      ],
      "type": "VEC3"
    },
    {
      "bufferView": 0,
      "byteOffset": 8764128,
      "componentType": 5125,
      "count": 256269,
      "max": [
        45641
      ],
      "min": [
        0
      ],
      "type": "SCALAR"
    }
  ],
  "asset": {
    "extras": {
      "author": "Baklan Anton (https://sketchfab.com/baklananton)",
      "license": "CC-BY-4.0 (http://creativecommons.org/licenses/by/4.0/)",
      "source": "https://sketchfab.com/models/ad2a3c0d9ef24f29ba0d8238263daf19",
      "title": "Height Map"
    },
    "generator": "Sketchfab-3.29.3",
    "version": "2.0"
  },
  "bufferViews": [
    {
      "buffer": 0,
      "byteLength": 9789204,
      "byteOffset": 0,
      "name": "floatBufferViews",
      "target": 34963
    },
    {
      "buffer": 0,
      "byteLength": 10532016,
      "byteOffset": 9789204,
      "byteStride": 12,
      "name": "floatBufferViews",
      "target": 34962
    }
  ],
  "buffers": [
    {
      "byteLength": 20321220,
      "uri": "scene.bin"
    }
  ],
  "materials": [
    {
      "doubleSided": true,
      "emissiveFactor": [
        0,
        0,
        0
      ],
      "name": "Scene_-_Root",
      "pbrMetallicRoughness": {
        "baseColorFactor": [
          0.5,
          0.5,
          0.5,
          1
        ],
        "metallicFactor": 0,
        "roughnessFactor": 0.59999999999999998
      }
    }
  ],
  "meshes": [
    {
      "primitives": [
        {
          "attributes": {
            "NORMAL": 1,
            "POSITION": 0
          },
          "indices": 2,
          "material": 0,
          "mode": 4
        }
      ]
    },
    {
      "primitives": [
        {
          "attributes": {
            "NORMAL": 4,
            "POSITION": 3
          },
          "indices": 5,
          "material": 0,
          "mode": 4
        }
      ]
    },
    {
      "primitives": [
        {
          "attributes": {
            "NORMAL": 7,
            "POSITION": 6
          },
          "indices": 8,
          "material": 0,
          "mode": 4
        }
      ]
    },
    {
      "primitives": [
        {
          "attributes": {
            "NORMAL": 10,
            "POSITION": 9
          },
          "indices": 11,
          "material": 0,
          "mode": 4
        }
      ]
    },
    {
      "primitives": [
        {
          "attributes": {
            "NORMAL": 13,
            "POSITION": 12
          },
          "indices": 14,
          "material": 0,
          "mode": 4
        }
      ]
    },
    {
      "primitives": [
        {
          "attributes": {
            "NORMAL": 16,
            "POSITION": 15
          },
          "indices": 17,
          "material": 0,
          "mode": 4
        }
      ]
    },
    {
      "primitives": [
        {
          "attributes": {
            "NORMAL": 19,
            "POSITION": 18
          },
          "indices": 20,
          "material": 0,
          "mode": 4
        }
      ]
    }
  ],
  "nodes": [
    {
      "children": [
        1
      ],
      "name": "RootNode (gltf orientation matrix)",
      "rotation": [
        -0.70710678118654746,
        -0,
        -0,
        0.70710678118654757
      ]
    },
    {
      "children": [
        2
      ],
      "name": "RootNode (model correction matrix)"
    },
    {
      "children": [
        3,
        4,
        5,
        6,
        7,
        8,
        9
      ],
      "name": "fff4bafef15146fea0e4c2e996cd19b2.stl.cleaner"
    },
    {
      "mesh": 0,
      "name": ""
    },
    {
      "mesh": 1,
      "name": ""
    },
    {
      "mesh": 2,
      "name": ""
    },
    {
      "mesh": 3,
      "name": ""
    },
    {
      "mesh": 4,
      "name": ""
    },
    {
      "mesh": 5,
      "name": ""
    },
    {
      "mesh": 6,
      "name": ""
    }
  ],
  "scene": 0,
  "scenes": [
    {
      "name": "OSG_Scene",
      "nodes": [
        0
      ]
    }
  ]
}

